<?xml version="1.0" encoding="UTF-8" standalone="no"?>
<!DOCTYPE svg PUBLIC "-//W3C//DTD SVG 1.1//EN"
 "http://www.w3.org/Graphics/SVG/1.1/DTD/svg11.dtd">
<!-- Generated by graphviz version 2.40.1 (20161225.0304)
 -->
<!-- Title: G Pages: 1 -->
<svg width="474pt" height="185pt"
 viewBox="0.00 0.00 474.00 185.00" xmlns="http://www.w3.org/2000/svg" xmlns:xlink="http://www.w3.org/1999/xlink">
<g id="graph0" class="graph" transform="scale(1 1) rotate(0) translate(4 181)">
<title>G</title>
<!-- s1 -->
<g id="node1" class="node">
<title>s1</title>
<polygon fill="#808020" stroke="#000000" points="17,-103.5 17,-149.5 240,-149.5 240,-103.5 17,-103.5"/>
<text text-anchor="middle" x="128.5" y="-134.3" font-family="monospace" font-size="14.00" fill="#000000">shared_ptr&lt;Foo&gt;</text>
<polyline fill="none" stroke="#000000" points="17,-126.5 240,-126.5 "/>
<text text-anchor="middle" x="50" y="-111.3" font-family="monospace" font-size="14.00" fill="#000000">_M_ptr</text>
<polyline fill="none" stroke="#000000" points="83,-103.5 83,-126.5 "/>
<text text-anchor="middle" x="161.5" y="-111.3" font-family="monospace" font-size="14.00" fill="#000000">_M_refcount._M_pi</text>
<text text-anchor="middle" x="8.5" y="-91.8" font-family="monospace" font-size="14.00" fill="#000000">s1</text>
</g>
<!-- control -->
<g id="node3" class="node">
<title>control</title>
<polygon fill="#808020" stroke="#000000" points="276,-65.5 276,-111.5 466,-111.5 466,-65.5 276,-65.5"/>
<text text-anchor="middle" x="371" y="-96.3" font-family="monospace" font-size="14.00" fill="#000000">_Sp_counted_base&lt;Foo&gt;</text>
<polyline fill="none" stroke="#000000" points="276,-88.5 466,-88.5 "/>
<text text-anchor="middle" x="346" y="-73.3" font-family="monospace" font-size="14.00" fill="#000000">_M_use_count=2</text>
<polyline fill="none" stroke="#000000" points="416,-65.5 416,-88.5 "/>
<text text-anchor="middle" x="441" y="-73.3" font-family="monospace" font-size="14.00" fill="#000000">...</text>
</g>
<!-- s1&#45;&gt;control -->
<g id="edge3" class="edge">
<title>s1:control&#45;&gt;control:ctrl</title>
<path fill="none" stroke="#000000" d="M240,-114.5C246.0802,-114.5 255.1671,-113.4088 265.7737,-111.6735"/>
<polygon fill="#000000" stroke="#000000" points="266.6471,-115.0742 275.899,-109.9116 265.447,-108.1778 266.6471,-115.0742"/>
</g>
<!-- object -->
<g id="node4" class="node">
<title>object</title>
<polygon fill="#808020" stroke="#000000" points="301,-130.5 301,-176.5 441,-176.5 441,-130.5 301,-130.5"/>
<text text-anchor="middle" x="371" y="-161.3" font-family="monospace" font-size="14.00" fill="#000000">Foo</text>
<polyline fill="none" stroke="#000000" points="301,-153.5 441,-153.5 "/>
<text text-anchor="middle" x="334" y="-138.3" font-family="monospace" font-size="14.00" fill="#000000">fields</text>
<polyline fill="none" stroke="#000000" points="367,-130.5 367,-153.5 "/>
<text text-anchor="middle" x="383.5" y="-138.3" font-family="monospace" font-size="14.00" fill="#000000">of</text>
<polyline fill="none" stroke="#000000" points="400,-130.5 400,-153.5 "/>
<text text-anchor="middle" x="420.5" y="-138.3" font-family="monospace" font-size="14.00" fill="#000000">Foo</text>
</g>
<!-- s1&#45;&gt;object -->
<g id="edge1" class="edge">
<title>s1:object&#45;&gt;object:foo</title>
<path fill="none" stroke="#000000" d="M49.5,-103.5C49.5,-82.3333 219.6493,-97.6797 240,-103.5 267.1112,-111.2538 269.0013,-134.9329 291.0485,-140.3762"/>
<polygon fill="#000000" stroke="#000000" points="290.6704,-143.8557 301,-141.5 291.4559,-136.8999 290.6704,-143.8557"/>
</g>
<!-- s2 -->
<g id="node2" class="node">
<title>s2</title>
<polygon fill="#808020" stroke="#000000" points="17,-32.5 17,-78.5 240,-78.5 240,-32.5 17,-32.5"/>
<text text-anchor="middle" x="128.5" y="-63.3" font-family="monospace" font-size="14.00" fill="#000000">shared_ptr&lt;Bar&gt;</text>
<polyline fill="none" stroke="#000000" points="17,-55.5 240,-55.5 "/>
<text text-anchor="middle" x="50" y="-40.3" font-family="monospace" font-size="14.00" fill="#000000">_M_ptr</text>
<polyline fill="none" stroke="#000000" points="83,-32.5 83,-55.5 "/>
<text text-anchor="middle" x="161.5" y="-40.3" font-family="monospace" font-size="14.00" fill="#000000">_M_refcount._M_pi</text>
<text text-anchor="middle" x="8.5" y="-20.8" font-family="monospace" font-size="14.00" fill="#000000">s2</text>
</g>
<!-- s2&#45;&gt;control -->
<g id="edge4" class="edge">
<title>s2:control&#45;&gt;control:ctrl</title>
<path fill="none" stroke="#000000" d="M240,-43.5C261.7254,-43.5 255.8869,-67.8948 267.7032,-82.0707"/>
<polygon fill="#000000" stroke="#000000" points="265.703,-84.9501 275.7311,-88.3689 270.0238,-79.4427 265.703,-84.9501"/>
</g>
<!-- object2 -->
<g id="node5" class="node">
<title>object2</title>
<polygon fill="#808020" stroke="#000000" points="301,-.5 301,-46.5 441,-46.5 441,-.5 301,-.5"/>
<text text-anchor="middle" x="371" y="-31.3" font-family="monospace" font-size="14.00" fill="#000000">Bar</text>
<polyline fill="none" stroke="#000000" points="301,-23.5 441,-23.5 "/>
<text text-anchor="middle" x="334" y="-8.3" font-family="monospace" font-size="14.00" fill="#000000">fields</text>
<polyline fill="none" stroke="#000000" points="367,-.5 367,-23.5 "/>
<text text-anchor="middle" x="383.5" y="-8.3" font-family="monospace" font-size="14.00" fill="#000000">of</text>
<polyline fill="none" stroke="#000000" points="400,-.5 400,-23.5 "/>
<text text-anchor="middle" x="420.5" y="-8.3" font-family="monospace" font-size="14.00" fill="#000000">Bar</text>
</g>
<!-- s2&#45;&gt;object2 -->
<g id="edge2" class="edge">
<title>s2:object&#45;&gt;object2:bar</title>
<path fill="none" stroke="#000000" d="M49.5,-32.5C49.5,20.5163 224.1274,-7.9354 290.6034,-11.2059"/>
<polygon fill="#000000" stroke="#000000" points="290.905,-14.7157 301,-11.5 291.103,-7.7185 290.905,-14.7157"/>
</g>
</g>
</svg>
