<?xml version="1.0" encoding="UTF-8" standalone="no"?>
<!DOCTYPE svg PUBLIC "-//W3C//DTD SVG 1.1//EN"
 "http://www.w3.org/Graphics/SVG/1.1/DTD/svg11.dtd">
<!-- Generated by graphviz version 2.40.1 (20161225.0304)
 -->
<!-- Title: G Pages: 1 -->
<svg width="523pt" height="143pt"
 viewBox="0.00 0.00 523.00 142.53" xmlns="http://www.w3.org/2000/svg" xmlns:xlink="http://www.w3.org/1999/xlink">
<g id="graph0" class="graph" transform="scale(1 1) rotate(0) translate(4 138.5325)">
<title>G</title>
<!-- shared_ptr -->
<g id="node1" class="node">
<title>shared_ptr</title>
<polygon fill="#808020" stroke="#000000" points="0,-88.0325 0,-134.0325 223,-134.0325 223,-88.0325 0,-88.0325"/>
<text text-anchor="middle" x="111.5" y="-118.8325" font-family="monospace" font-size="14.00" fill="#000000">shared_ptr&lt;Foo&gt;</text>
<polyline fill="none" stroke="#000000" points="0,-111.0325 223,-111.0325 "/>
<text text-anchor="middle" x="33" y="-95.8325" font-family="monospace" font-size="14.00" fill="#000000">_M_ptr</text>
<polyline fill="none" stroke="#000000" points="66,-88.0325 66,-111.0325 "/>
<text text-anchor="middle" x="144.5" y="-95.8325" font-family="monospace" font-size="14.00" fill="#000000">_M_refcount._M_pi</text>
</g>
<!-- control -->
<g id="node3" class="node">
<title>control</title>
<polygon fill="#808020" stroke="#000000" points="259,-55.0325 259,-101.0325 515,-101.0325 515,-55.0325 259,-55.0325"/>
<text text-anchor="middle" x="387" y="-85.8325" font-family="monospace" font-size="14.00" fill="#000000">_Sp_counted_base&lt;Foo&gt; + Foo</text>
<polyline fill="none" stroke="#000000" points="259,-78.0325 515,-78.0325 "/>
<text text-anchor="middle" x="325" y="-62.8325" font-family="monospace" font-size="14.00" fill="#000000">_M_use_count=2</text>
<polyline fill="none" stroke="#000000" points="391,-55.0325 391,-78.0325 "/>
<text text-anchor="middle" x="453" y="-62.8325" font-family="monospace" font-size="14.00" fill="#000000">fields of Foo</text>
</g>
<!-- shared_ptr&#45;&gt;control -->
<g id="edge1" class="edge">
<title>shared_ptr:object&#45;&gt;control:foo</title>
<path fill="none" stroke="#000000" d="M32.5,-88.0325C32.5,-77.4374 212.9348,-82.3413 223,-79.0325 241.2679,-73.0272 240.5955,-60.6049 259,-55.0325 337.9767,-31.1203 443.4734,25.9941 452.3937,-44.7201"/>
<polygon fill="#000000" stroke="#000000" points="448.919,-45.2552 453,-55.0325 455.9069,-44.8443 448.919,-45.2552"/>
</g>
<!-- shared_ptr&#45;&gt;control -->
<g id="edge3" class="edge">
<title>shared_ptr:control&#45;&gt;control:ctrl</title>
<path fill="none" stroke="#000000" d="M223,-99.0325C240.4658,-99.0325 239.0789,-77.6643 249.1803,-69.3173"/>
<polygon fill="#000000" stroke="#000000" points="250.6269,-72.5241 259,-66.0325 248.4062,-65.8857 250.6269,-72.5241"/>
</g>
<!-- shared_ptr2 -->
<g id="node2" class="node">
<title>shared_ptr2</title>
<polygon fill="#808020" stroke="#000000" points="0,-23.0325 0,-69.0325 223,-69.0325 223,-23.0325 0,-23.0325"/>
<text text-anchor="middle" x="111.5" y="-53.8325" font-family="monospace" font-size="14.00" fill="#000000">shared_ptr&lt;Foo&gt;</text>
<polyline fill="none" stroke="#000000" points="0,-46.0325 223,-46.0325 "/>
<text text-anchor="middle" x="33" y="-30.8325" font-family="monospace" font-size="14.00" fill="#000000">_M_ptr</text>
<polyline fill="none" stroke="#000000" points="66,-23.0325 66,-46.0325 "/>
<text text-anchor="middle" x="144.5" y="-30.8325" font-family="monospace" font-size="14.00" fill="#000000">_M_refcount._M_pi</text>
</g>
<!-- shared_ptr2&#45;&gt;control -->
<g id="edge2" class="edge">
<title>shared_ptr2:object&#45;&gt;control:foo</title>
<path fill="none" stroke="#000000" d="M32.5,-23.0325C32.5,20.8047 400.5418,-4.3778 447.9846,-46.1745"/>
<polygon fill="#000000" stroke="#000000" points="445.0272,-48.055 453,-55.0325 451.1186,-44.606 445.0272,-48.055"/>
</g>
<!-- shared_ptr2&#45;&gt;control -->
<g id="edge4" class="edge">
<title>shared_ptr2:control&#45;&gt;control:ctrl</title>
<path fill="none" stroke="#000000" d="M223,-34.0325C240.2262,-34.0325 239.1781,-54.7532 249.2659,-62.8472"/>
<polygon fill="#000000" stroke="#000000" points="248.4074,-66.2489 259,-66.0325 250.5844,-59.596 248.4074,-66.2489"/>
</g>
</g>
</svg>
