<?xml version="1.0" encoding="UTF-8" standalone="no"?>
<!DOCTYPE svg PUBLIC "-//W3C//DTD SVG 1.1//EN"
 "http://www.w3.org/Graphics/SVG/1.1/DTD/svg11.dtd">
<!-- Generated by graphviz version 2.40.1 (20161225.0304)
 -->
<!-- Title: G Pages: 1 -->
<svg width="316pt" height="144pt"
 viewBox="0.00 0.00 316.00 144.00" xmlns="http://www.w3.org/2000/svg" xmlns:xlink="http://www.w3.org/1999/xlink">
<g id="graph0" class="graph" transform="scale(1 1) rotate(0) translate(4 140)">
<title>G</title>
<!-- shared_ptr -->
<g id="node1" class="node">
<title>shared_ptr</title>
<polygon fill="#808020" stroke="#000000" points="0,-89.5 0,-135.5 132,-135.5 132,-89.5 0,-89.5"/>
<text text-anchor="middle" x="66" y="-120.3" font-family="monospace" font-size="14.00" fill="#000000">SharedPtr&lt;Foo&gt;</text>
<polyline fill="none" stroke="#000000" points="0,-112.5 132,-112.5 "/>
<text text-anchor="middle" x="33" y="-97.3" font-family="monospace" font-size="14.00" fill="#000000">ptr</text>
<polyline fill="none" stroke="#000000" points="66,-89.5 66,-112.5 "/>
<text text-anchor="middle" x="99" y="-97.3" font-family="monospace" font-size="14.00" fill="#000000">ref</text>
</g>
<!-- control -->
<g id="node3" class="node">
<title>control</title>
<polygon fill="#808020" stroke="#000000" points="176,-65.5 176,-111.5 300,-111.5 300,-65.5 176,-65.5"/>
<text text-anchor="middle" x="238" y="-96.3" font-family="monospace" font-size="14.00" fill="#000000">Refcount&lt;Foo&gt;</text>
<polyline fill="none" stroke="#000000" points="176,-88.5 300,-88.5 "/>
<text text-anchor="middle" x="238" y="-73.3" font-family="monospace" font-size="14.00" fill="#000000">count=2</text>
</g>
<!-- shared_ptr&#45;&gt;control -->
<g id="edge3" class="edge">
<title>shared_ptr:control&#45;&gt;control:ctrl</title>
<path fill="none" stroke="#000000" d="M132,-100.5C147.5833,-100.5 153.8532,-100.5 165.6529,-100.5"/>
<polygon fill="#000000" stroke="#000000" points="166,-104.0001 176,-100.5 166,-97.0001 166,-104.0001"/>
</g>
<!-- object -->
<g id="node4" class="node">
<title>object</title>
<polygon fill="#808020" stroke="#000000" points="168,-.5 168,-46.5 308,-46.5 308,-.5 168,-.5"/>
<text text-anchor="middle" x="238" y="-31.3" font-family="monospace" font-size="14.00" fill="#000000">Foo</text>
<polyline fill="none" stroke="#000000" points="168,-23.5 308,-23.5 "/>
<text text-anchor="middle" x="201" y="-8.3" font-family="monospace" font-size="14.00" fill="#000000">fields</text>
<polyline fill="none" stroke="#000000" points="234,-.5 234,-23.5 "/>
<text text-anchor="middle" x="250.5" y="-8.3" font-family="monospace" font-size="14.00" fill="#000000">in</text>
<polyline fill="none" stroke="#000000" points="267,-.5 267,-23.5 "/>
<text text-anchor="middle" x="287.5" y="-8.3" font-family="monospace" font-size="14.00" fill="#000000">foo</text>
</g>
<!-- shared_ptr&#45;&gt;object -->
<g id="edge1" class="edge">
<title>shared_ptr:object&#45;&gt;object:foo</title>
<path fill="none" stroke="#000000" d="M33,-89.5C33,-78.4546 122.2718,-85.7309 132,-80.5 150.8572,-70.3603 145.4462,-45.7273 158.1246,-37.9175"/>
<polygon fill="#000000" stroke="#000000" points="159.1191,-41.2775 168,-35.5 157.4545,-34.4783 159.1191,-41.2775"/>
</g>
<!-- shared_ptr2 -->
<g id="node2" class="node">
<title>shared_ptr2</title>
<polygon fill="#808020" stroke="#000000" points="0,-24.5 0,-70.5 132,-70.5 132,-24.5 0,-24.5"/>
<text text-anchor="middle" x="66" y="-55.3" font-family="monospace" font-size="14.00" fill="#000000">SharedPtr&lt;Foo&gt;</text>
<polyline fill="none" stroke="#000000" points="0,-47.5 132,-47.5 "/>
<text text-anchor="middle" x="33" y="-32.3" font-family="monospace" font-size="14.00" fill="#000000">ptr</text>
<polyline fill="none" stroke="#000000" points="66,-24.5 66,-47.5 "/>
<text text-anchor="middle" x="99" y="-32.3" font-family="monospace" font-size="14.00" fill="#000000">ref</text>
</g>
<!-- shared_ptr2&#45;&gt;control -->
<g id="edge4" class="edge">
<title>shared_ptr2:control&#45;&gt;control:ctrl</title>
<path fill="none" stroke="#000000" d="M132,-35.5C162.7972,-35.5 146.3217,-86.1583 166.0393,-98.0313"/>
<polygon fill="#000000" stroke="#000000" points="165.4517,-101.4915 176,-100.5 167.1357,-94.697 165.4517,-101.4915"/>
</g>
<!-- shared_ptr2&#45;&gt;object -->
<g id="edge2" class="edge">
<title>shared_ptr2:object&#45;&gt;object:foo</title>
<path fill="none" stroke="#000000" d="M33,-24.5C33,19.5 88.4828,-17.9999 132,-24.5 144.5393,-26.373 149.1399,-31.7243 157.9138,-34.2065"/>
<polygon fill="#000000" stroke="#000000" points="157.636,-37.6994 168,-35.5 158.5265,-30.7563 157.636,-37.6994"/>
</g>
</g>
</svg>
