<?xml version="1.0" encoding="UTF-8" standalone="no"?>
<!DOCTYPE svg PUBLIC "-//W3C//DTD SVG 1.1//EN"
 "http://www.w3.org/Graphics/SVG/1.1/DTD/svg11.dtd">
<!-- Generated by graphviz version 2.40.1 (20161225.0304)
 -->
<!-- Title: G Pages: 1 -->
<svg width="988pt" height="177pt"
 viewBox="0.00 0.00 988.00 176.92" xmlns="http://www.w3.org/2000/svg" xmlns:xlink="http://www.w3.org/1999/xlink">
<g id="graph0" class="graph" transform="scale(1 1) rotate(0) translate(4 172.9161)">
<title>G</title>
<!-- shared_ptr -->
<g id="node1" class="node">
<title>shared_ptr</title>
<polygon fill="#808020" stroke="#000000" points="0,-38.4161 0,-84.4161 223,-84.4161 223,-38.4161 0,-38.4161"/>
<text text-anchor="middle" x="111.5" y="-69.2161" font-family="monospace" font-size="14.00" fill="#000000">std::shared_ptr&lt;Derived&gt;</text>
<polyline fill="none" stroke="#000000" points="0,-61.4161 223,-61.4161 "/>
<text text-anchor="middle" x="33" y="-46.2161" font-family="monospace" font-size="14.00" fill="#000000">_M_ptr</text>
<polyline fill="none" stroke="#000000" points="66,-38.4161 66,-61.4161 "/>
<text text-anchor="middle" x="144.5" y="-46.2161" font-family="monospace" font-size="14.00" fill="#000000">_M_refcount._M_pi</text>
</g>
<!-- control -->
<g id="node3" class="node">
<title>control</title>
<polygon fill="#808020" stroke="#000000" points="259,-68.4161 259,-114.4161 639,-114.4161 639,-68.4161 259,-68.4161"/>
<text text-anchor="middle" x="449" y="-99.2161" font-family="monospace" font-size="14.00" fill="#000000">_Sp_counted_ptr&lt;Derived&gt;</text>
<polyline fill="none" stroke="#000000" points="259,-91.4161 639,-91.4161 "/>
<text text-anchor="middle" x="284" y="-76.2161" font-family="monospace" font-size="14.00" fill="#000000">vptr</text>
<polyline fill="none" stroke="#000000" points="309,-68.4161 309,-91.4161 "/>
<text text-anchor="middle" x="375" y="-76.2161" font-family="monospace" font-size="14.00" fill="#000000">_M_use_count=2</text>
<polyline fill="none" stroke="#000000" points="441,-68.4161 441,-91.4161 "/>
<text text-anchor="middle" x="507" y="-76.2161" font-family="monospace" font-size="14.00" fill="#000000">_M_weakcount=1</text>
<polyline fill="none" stroke="#000000" points="573,-68.4161 573,-91.4161 "/>
<text text-anchor="middle" x="606" y="-76.2161" font-family="monospace" font-size="14.00" fill="#000000">_M_ptr</text>
</g>
<!-- shared_ptr&#45;&gt;control -->
<g id="edge2" class="edge">
<title>shared_ptr:control&#45;&gt;control:ctrl</title>
<path fill="none" stroke="#000000" d="M223,-49.4161C247.5628,-49.4161 235.481,-88.5747 249.165,-100.1999"/>
<polygon fill="#000000" stroke="#000000" points="248.4074,-103.6345 259,-103.4161 250.5832,-96.9812 248.4074,-103.6345"/>
</g>
<!-- object -->
<g id="node4" class="node">
<title>object</title>
<polygon fill="#808020" stroke="#000000" points="741,-24.4161 741,-70.4161 914,-70.4161 914,-24.4161 741,-24.4161"/>
<text text-anchor="middle" x="827.5" y="-55.2161" font-family="monospace" font-size="14.00" fill="#000000">Derived</text>
<polyline fill="none" stroke="#000000" points="741,-47.4161 914,-47.4161 "/>
<text text-anchor="middle" x="774" y="-32.2161" font-family="monospace" font-size="14.00" fill="#000000">fields</text>
<polyline fill="none" stroke="#000000" points="807,-24.4161 807,-47.4161 "/>
<text text-anchor="middle" x="823.5" y="-32.2161" font-family="monospace" font-size="14.00" fill="#000000">in</text>
<polyline fill="none" stroke="#000000" points="840,-24.4161 840,-47.4161 "/>
<text text-anchor="middle" x="877" y="-32.2161" font-family="monospace" font-size="14.00" fill="#000000">Derived</text>
</g>
<!-- shared_ptr&#45;&gt;object -->
<g id="edge1" class="edge">
<title>shared_ptr:object&#45;&gt;object:derived</title>
<path fill="none" stroke="#000000" d="M32.5,-38.4161C32.5,46.2506 138.3507,-36.6993 223,-38.4161 449.7707,-43.0154 508.5987,-58.9401 730.4946,-59.4057"/>
<polygon fill="#000000" stroke="#000000" points="730.4963,-62.9056 740.5,-59.4161 730.5037,-55.9056 730.4963,-62.9056"/>
</g>
<!-- shared_ptr2 -->
<g id="node2" class="node">
<title>shared_ptr2</title>
<polygon fill="#808020" stroke="#000000" points="0,-122.4161 0,-168.4161 223,-168.4161 223,-122.4161 0,-122.4161"/>
<text text-anchor="middle" x="111.5" y="-153.2161" font-family="monospace" font-size="14.00" fill="#000000">std::shared_ptr&lt;Base&gt;</text>
<polyline fill="none" stroke="#000000" points="0,-145.4161 223,-145.4161 "/>
<text text-anchor="middle" x="33" y="-130.2161" font-family="monospace" font-size="14.00" fill="#000000">_M_ptr</text>
<polyline fill="none" stroke="#000000" points="66,-122.4161 66,-145.4161 "/>
<text text-anchor="middle" x="144.5" y="-130.2161" font-family="monospace" font-size="14.00" fill="#000000">_M_refcount._M_pi</text>
</g>
<!-- shared_ptr2&#45;&gt;control -->
<g id="edge4" class="edge">
<title>shared_ptr2:control&#45;&gt;control:ctrl</title>
<path fill="none" stroke="#000000" d="M223,-133.4161C239.7595,-133.4161 239.3713,-113.9905 249.4325,-106.4023"/>
<polygon fill="#000000" stroke="#000000" points="250.497,-109.7367 259,-103.4161 248.4113,-103.0546 250.497,-109.7367"/>
</g>
<!-- shared_ptr2&#45;&gt;object -->
<g id="edge3" class="edge">
<title>shared_ptr2:object&#45;&gt;object:derived</title>
<path fill="none" stroke="#000000" d="M32.5,-122.4161C32.5,-72.0823 208.671,-122.7172 259,-123.4161 427.8726,-125.7611 486.3802,-195.7394 639,-123.4161 661.833,-112.596 654.0146,-93.4886 675,-79.4161 697.2189,-64.5165 707.4657,-60.3581 730.2869,-59.5695"/>
<polygon fill="#000000" stroke="#000000" points="730.5537,-63.0659 740.5,-59.4161 730.4485,-56.0667 730.5537,-63.0659"/>
</g>
<!-- control&#45;&gt;object -->
<g id="edge5" class="edge">
<title>control:ptr&#45;&gt;object:derived</title>
<path fill="none" stroke="#000000" d="M639,-79.4161C681.3865,-79.4161 692.808,-62.419 730.3562,-59.7633"/>
<polygon fill="#000000" stroke="#000000" points="730.6256,-63.2562 740.5,-59.4161 730.3861,-56.2603 730.6256,-63.2562"/>
</g>
<!-- vtable -->
<g id="node5" class="node">
<title>vtable</title>
<polygon fill="#808020" stroke="#000000" points="675,-89.4161 675,-135.4161 980,-135.4161 980,-89.4161 675,-89.4161"/>
<text text-anchor="middle" x="827.5" y="-120.2161" font-family="monospace" font-size="14.00" fill="#000000">vtable for _Sp_counted_ptr&lt;Derived&gt;</text>
<polyline fill="none" stroke="#000000" points="675,-112.4161 980,-112.4161 "/>
<text text-anchor="middle" x="827.5" y="-97.2161" font-family="monospace" font-size="14.00" fill="#000000">destructor for Derived</text>
</g>
<!-- control&#45;&gt;vtable -->
<g id="edge6" class="edge">
<title>control:vptr&#45;&gt;vtable</title>
<path fill="none" stroke="#000000" d="M284,-68.4161C284,-48.6939 619.4942,-65.5025 639,-68.4161 655.5467,-70.8877 658.81,-75.1988 675,-79.4161 684.9325,-82.0034 695.2657,-84.5478 705.6632,-87.0052"/>
<polygon fill="#000000" stroke="#000000" points="705.107,-90.4694 715.6407,-89.3332 706.6976,-83.6525 705.107,-90.4694"/>
</g>
</g>
</svg>
