<?xml version="1.0" encoding="UTF-8" standalone="no"?>
<!DOCTYPE svg PUBLIC "-//W3C//DTD SVG 1.1//EN"
 "http://www.w3.org/Graphics/SVG/1.1/DTD/svg11.dtd">
<!-- Generated by graphviz version 2.40.1 (20161225.0304)
 -->
<!-- Title: G Pages: 1 -->
<svg width="474pt" height="146pt"
 viewBox="0.00 0.00 474.00 146.37" xmlns="http://www.w3.org/2000/svg" xmlns:xlink="http://www.w3.org/1999/xlink">
<g id="graph0" class="graph" transform="scale(1 1) rotate(0) translate(4 142.3725)">
<title>G</title>
<!-- s1 -->
<g id="node1" class="node">
<title>s1</title>
<polygon fill="#808020" stroke="#000000" points="17,-91.8725 17,-137.8725 240,-137.8725 240,-91.8725 17,-91.8725"/>
<text text-anchor="middle" x="128.5" y="-122.6725" font-family="monospace" font-size="14.00" fill="#000000">shared_ptr&lt;Foo&gt;</text>
<polyline fill="none" stroke="#000000" points="17,-114.8725 240,-114.8725 "/>
<text text-anchor="middle" x="50" y="-99.6725" font-family="monospace" font-size="14.00" fill="#000000">_M_ptr</text>
<polyline fill="none" stroke="#000000" points="83,-91.8725 83,-114.8725 "/>
<text text-anchor="middle" x="161.5" y="-99.6725" font-family="monospace" font-size="14.00" fill="#000000">_M_refcount._M_pi</text>
<text text-anchor="middle" x="8.5" y="-80.1725" font-family="monospace" font-size="14.00" fill="#000000">s1</text>
</g>
<!-- control -->
<g id="node3" class="node">
<title>control</title>
<polygon fill="#808020" stroke="#000000" points="276,-82.8725 276,-128.8725 466,-128.8725 466,-82.8725 276,-82.8725"/>
<text text-anchor="middle" x="371" y="-113.6725" font-family="monospace" font-size="14.00" fill="#000000">_Sp_counted_base&lt;Foo&gt;</text>
<polyline fill="none" stroke="#000000" points="276,-105.8725 466,-105.8725 "/>
<text text-anchor="middle" x="346" y="-90.6725" font-family="monospace" font-size="14.00" fill="#000000">_M_use_count=2</text>
<polyline fill="none" stroke="#000000" points="416,-82.8725 416,-105.8725 "/>
<text text-anchor="middle" x="441" y="-90.6725" font-family="monospace" font-size="14.00" fill="#000000">...</text>
</g>
<!-- s1&#45;&gt;control -->
<g id="edge3" class="edge">
<title>s1:control&#45;&gt;control:ctrl</title>
<path fill="none" stroke="#000000" d="M240,-102.8725C251.8231,-102.8725 257.0562,-104.1375 265.3994,-105.0708"/>
<polygon fill="#000000" stroke="#000000" points="265.3875,-108.5801 275.6262,-105.8565 265.9238,-101.6007 265.3875,-108.5801"/>
</g>
<!-- object -->
<g id="node4" class="node">
<title>object</title>
<polygon fill="#808020" stroke="#000000" points="301,-17.8725 301,-63.8725 441,-63.8725 441,-17.8725 301,-17.8725"/>
<text text-anchor="middle" x="371" y="-48.6725" font-family="monospace" font-size="14.00" fill="#000000">Foo</text>
<polyline fill="none" stroke="#000000" points="301,-40.8725 441,-40.8725 "/>
<text text-anchor="middle" x="334" y="-25.6725" font-family="monospace" font-size="14.00" fill="#000000">fields</text>
<polyline fill="none" stroke="#000000" points="367,-17.8725 367,-40.8725 "/>
<text text-anchor="middle" x="383.5" y="-25.6725" font-family="monospace" font-size="14.00" fill="#000000">of</text>
<polyline fill="none" stroke="#000000" points="400,-17.8725 400,-40.8725 "/>
<text text-anchor="middle" x="420.5" y="-25.6725" font-family="monospace" font-size="14.00" fill="#000000">Foo</text>
<text text-anchor="middle" x="296.5" y="-6.1725" font-family="monospace" font-size="14.00" fill="#000000">f</text>
</g>
<!-- s1&#45;&gt;object -->
<g id="edge1" class="edge">
<title>s1:object&#45;&gt;object:foo</title>
<path fill="none" stroke="#000000" d="M49.5,-91.8725C49.5,-70.6638 220.3014,-87.7319 240,-79.8725 269.2323,-68.2093 266.7498,-36.8673 290.8219,-30.1508"/>
<polygon fill="#000000" stroke="#000000" points="291.5141,-33.5914 301,-28.8725 290.6418,-26.646 291.5141,-33.5914"/>
</g>
<!-- s2 -->
<g id="node2" class="node">
<title>s2</title>
<polygon fill="#808020" stroke="#000000" points="17,-23.8725 17,-69.8725 240,-69.8725 240,-23.8725 17,-23.8725"/>
<text text-anchor="middle" x="128.5" y="-54.6725" font-family="monospace" font-size="14.00" fill="#000000">shared_ptr&lt;Foo&gt;</text>
<polyline fill="none" stroke="#000000" points="17,-46.8725 240,-46.8725 "/>
<text text-anchor="middle" x="50" y="-31.6725" font-family="monospace" font-size="14.00" fill="#000000">_M_ptr</text>
<polyline fill="none" stroke="#000000" points="83,-23.8725 83,-46.8725 "/>
<text text-anchor="middle" x="161.5" y="-31.6725" font-family="monospace" font-size="14.00" fill="#000000">_M_refcount._M_pi</text>
<text text-anchor="middle" x="8.5" y="-12.1725" font-family="monospace" font-size="14.00" fill="#000000">s2</text>
</g>
<!-- s2&#45;&gt;control -->
<g id="edge4" class="edge">
<title>s2:control&#45;&gt;control:ctrl</title>
<path fill="none" stroke="#000000" d="M240,-34.8725C271.525,-34.8725 251.5161,-76.5421 268.1093,-98.7218"/>
<polygon fill="#000000" stroke="#000000" points="265.9189,-101.4624 275.6494,-105.6539 270.6566,-96.3093 265.9189,-101.4624"/>
</g>
<!-- s2&#45;&gt;object -->
<g id="edge2" class="edge">
<title>s2:object&#45;&gt;object:foo</title>
<path fill="none" stroke="#000000" d="M49.5,-23.8725C49.5,28.9704 224.2913,-22.5609 290.6303,-28.3551"/>
<polygon fill="#000000" stroke="#000000" points="290.838,-31.8698 301,-28.8725 291.1869,-24.8784 290.838,-31.8698"/>
</g>
</g>
</svg>
