<?xml version="1.0" encoding="UTF-8" standalone="no"?>
<!DOCTYPE svg PUBLIC "-//W3C//DTD SVG 1.1//EN"
 "http://www.w3.org/Graphics/SVG/1.1/DTD/svg11.dtd">
<!-- Generated by graphviz version 2.40.1 (20161225.0304)
 -->
<!-- Title: G Pages: 1 -->
<svg width="580pt" height="271pt"
 viewBox="0.00 0.00 580.00 271.23" xmlns="http://www.w3.org/2000/svg" xmlns:xlink="http://www.w3.org/1999/xlink">
<g id="graph0" class="graph" transform="scale(1 1) rotate(0) translate(4 267.2255)">
<title>G</title>
<!-- shared_ptr -->
<g id="node1" class="node">
<title>shared_ptr</title>
<polygon fill="#808020" stroke="#000000" points="0,-86.7255 0,-132.7255 223,-132.7255 223,-86.7255 0,-86.7255"/>
<text text-anchor="middle" x="111.5" y="-117.5255" font-family="monospace" font-size="14.00" fill="#000000">shared_ptr&lt;Foo&gt;</text>
<polyline fill="none" stroke="#000000" points="0,-109.7255 223,-109.7255 "/>
<text text-anchor="middle" x="33" y="-94.5255" font-family="monospace" font-size="14.00" fill="#000000">_M_ptr</text>
<polyline fill="none" stroke="#000000" points="66,-86.7255 66,-109.7255 "/>
<text text-anchor="middle" x="144.5" y="-94.5255" font-family="monospace" font-size="14.00" fill="#000000">_M_refcount._M_pi</text>
</g>
<!-- control -->
<g id="node5" class="node">
<title>control</title>
<polygon fill="#808020" stroke="#000000" points="259,-151.7255 259,-197.7255 572,-197.7255 572,-151.7255 259,-151.7255"/>
<text text-anchor="middle" x="415.5" y="-182.5255" font-family="monospace" font-size="14.00" fill="#000000">_Sp_counted_base&lt;Foo&gt;</text>
<polyline fill="none" stroke="#000000" points="259,-174.7255 572,-174.7255 "/>
<text text-anchor="middle" x="325" y="-159.5255" font-family="monospace" font-size="14.00" fill="#000000">_M_use_count=2</text>
<polyline fill="none" stroke="#000000" points="391,-151.7255 391,-174.7255 "/>
<text text-anchor="middle" x="461" y="-159.5255" font-family="monospace" font-size="14.00" fill="#000000">_M_weak_count=3</text>
<polyline fill="none" stroke="#000000" points="531,-151.7255 531,-174.7255 "/>
<text text-anchor="middle" x="551.5" y="-159.5255" font-family="monospace" font-size="14.00" fill="#000000">...</text>
</g>
<!-- shared_ptr&#45;&gt;control -->
<g id="edge3" class="edge">
<title>shared_ptr:control&#45;&gt;control:ctrl</title>
<path fill="none" stroke="#000000" d="M223,-97.7255C251.8958,-97.7255 232.5026,-147.4911 249.3262,-159.9325"/>
<polygon fill="#000000" stroke="#000000" points="248.4215,-163.3142 259,-162.7255 250.3633,-156.5889 248.4215,-163.3142"/>
</g>
<!-- object -->
<g id="node6" class="node">
<title>object</title>
<polygon fill="#808020" stroke="#000000" points="345.5,-86.7255 345.5,-132.7255 485.5,-132.7255 485.5,-86.7255 345.5,-86.7255"/>
<text text-anchor="middle" x="415.5" y="-117.5255" font-family="monospace" font-size="14.00" fill="#000000">Foo</text>
<polyline fill="none" stroke="#000000" points="345.5,-109.7255 485.5,-109.7255 "/>
<text text-anchor="middle" x="378.5" y="-94.5255" font-family="monospace" font-size="14.00" fill="#000000">fields</text>
<polyline fill="none" stroke="#000000" points="411.5,-86.7255 411.5,-109.7255 "/>
<text text-anchor="middle" x="428" y="-94.5255" font-family="monospace" font-size="14.00" fill="#000000">of</text>
<polyline fill="none" stroke="#000000" points="444.5,-86.7255 444.5,-109.7255 "/>
<text text-anchor="middle" x="465" y="-94.5255" font-family="monospace" font-size="14.00" fill="#000000">Foo</text>
</g>
<!-- shared_ptr&#45;&gt;object -->
<g id="edge1" class="edge">
<title>shared_ptr:object&#45;&gt;object:foo</title>
<path fill="none" stroke="#000000" d="M32.5,-86.7255C32.5,-65.5588 201.8545,-85.778 223,-86.7255 274.089,-89.0146 288.9594,-96.6483 335.4245,-97.6228"/>
<polygon fill="#000000" stroke="#000000" points="335.4648,-101.1233 345.5,-97.7255 335.5362,-94.1236 335.4648,-101.1233"/>
</g>
<!-- shared_ptr2 -->
<g id="node2" class="node">
<title>shared_ptr2</title>
<polygon fill="#808020" stroke="#000000" points="0,-21.7255 0,-67.7255 223,-67.7255 223,-21.7255 0,-21.7255"/>
<text text-anchor="middle" x="111.5" y="-52.5255" font-family="monospace" font-size="14.00" fill="#000000">shared_ptr&lt;Foo&gt;</text>
<polyline fill="none" stroke="#000000" points="0,-44.7255 223,-44.7255 "/>
<text text-anchor="middle" x="33" y="-29.5255" font-family="monospace" font-size="14.00" fill="#000000">_M_ptr</text>
<polyline fill="none" stroke="#000000" points="66,-21.7255 66,-44.7255 "/>
<text text-anchor="middle" x="144.5" y="-29.5255" font-family="monospace" font-size="14.00" fill="#000000">_M_refcount._M_pi</text>
</g>
<!-- shared_ptr2&#45;&gt;control -->
<g id="edge4" class="edge">
<title>shared_ptr2:control&#45;&gt;control:ctrl</title>
<path fill="none" stroke="#000000" d="M223,-32.7255C278.971,-32.7255 209.5569,-146.0331 248.8753,-161.0818"/>
<polygon fill="#000000" stroke="#000000" points="248.5683,-164.5777 259,-162.7255 249.6901,-157.6682 248.5683,-164.5777"/>
</g>
<!-- shared_ptr2&#45;&gt;object -->
<g id="edge2" class="edge">
<title>shared_ptr2:object&#45;&gt;object:foo</title>
<path fill="none" stroke="#000000" d="M32.5,-21.7255C32.5,20.6079 182.2879,-10.1222 223,-21.7255 281.1276,-38.2922 281.582,-91.2366 335.2362,-97.1811"/>
<polygon fill="#000000" stroke="#000000" points="335.3286,-100.6908 345.5,-97.7255 335.6994,-93.7006 335.3286,-100.6908"/>
</g>
<!-- weak_ptr -->
<g id="node3" class="node">
<title>weak_ptr</title>
<polygon fill="#808020" stroke="#000000" points="0,-216.7255 0,-262.7255 223,-262.7255 223,-216.7255 0,-216.7255"/>
<text text-anchor="middle" x="111.5" y="-247.5255" font-family="monospace" font-size="14.00" fill="#000000">weak_ptr&lt;Foo&gt;</text>
<polyline fill="none" stroke="#000000" points="0,-239.7255 223,-239.7255 "/>
<text text-anchor="middle" x="33" y="-224.5255" font-family="monospace" font-size="14.00" fill="#000000">_M_ptr</text>
<polyline fill="none" stroke="#000000" points="66,-216.7255 66,-239.7255 "/>
<text text-anchor="middle" x="144.5" y="-224.5255" font-family="monospace" font-size="14.00" fill="#000000">_M_refcount._M_pi</text>
</g>
<!-- weak_ptr&#45;&gt;control -->
<g id="edge7" class="edge">
<title>weak_ptr:control&#45;&gt;control:ctrl</title>
<path fill="none" stroke="#000000" d="M223,-227.7255C251.8958,-227.7255 232.5026,-177.9598 249.3262,-165.5184"/>
<polygon fill="#000000" stroke="#000000" points="250.3633,-168.862 259,-162.7255 248.4215,-162.1367 250.3633,-168.862"/>
</g>
<!-- weak_ptr&#45;&gt;object -->
<g id="edge5" class="edge">
<title>weak_ptr:object&#45;&gt;object:foo</title>
<path fill="none" stroke="#000000" d="M32.5,-216.7255C32.5,-206.1303 214.0014,-213.3185 223,-207.7255 251.0476,-190.2928 235.3461,-165.7702 259,-142.7255 287.4938,-114.9656 300.0479,-100.2511 335.4378,-98.0238"/>
<polygon fill="#000000" stroke="#000000" points="335.6082,-101.5204 345.5,-97.7255 335.4006,-94.5235 335.6082,-101.5204"/>
</g>
<!-- weak_ptr2 -->
<g id="node4" class="node">
<title>weak_ptr2</title>
<polygon fill="#808020" stroke="#000000" points="0,-151.7255 0,-197.7255 223,-197.7255 223,-151.7255 0,-151.7255"/>
<text text-anchor="middle" x="111.5" y="-182.5255" font-family="monospace" font-size="14.00" fill="#000000">weak_ptr&lt;Foo&gt;</text>
<polyline fill="none" stroke="#000000" points="0,-174.7255 223,-174.7255 "/>
<text text-anchor="middle" x="33" y="-159.5255" font-family="monospace" font-size="14.00" fill="#000000">_M_ptr</text>
<polyline fill="none" stroke="#000000" points="66,-151.7255 66,-174.7255 "/>
<text text-anchor="middle" x="144.5" y="-159.5255" font-family="monospace" font-size="14.00" fill="#000000">_M_refcount._M_pi</text>
</g>
<!-- weak_ptr2&#45;&gt;control -->
<g id="edge8" class="edge">
<title>weak_ptr2:control&#45;&gt;control:ctrl</title>
<path fill="none" stroke="#000000" d="M223,-162.7255C235,-162.7255 240.25,-162.7255 248.875,-162.7255"/>
<polygon fill="#000000" stroke="#000000" points="249,-166.2256 259,-162.7255 249,-159.2256 249,-166.2256"/>
</g>
<!-- weak_ptr2&#45;&gt;object -->
<g id="edge6" class="edge">
<title>weak_ptr2:object&#45;&gt;object:foo</title>
<path fill="none" stroke="#000000" d="M32.5,-151.7255C32.5,-141.1303 212.6153,-144.8265 223,-142.7255 276.4077,-131.9199 286.3917,-101.7012 335.4962,-98.0815"/>
<polygon fill="#000000" stroke="#000000" points="335.6309,-101.5791 345.5,-97.7255 335.3818,-94.5835 335.6309,-101.5791"/>
</g>
</g>
</svg>
