<?xml version="1.0" encoding="UTF-8" standalone="no"?>
<!DOCTYPE svg PUBLIC "-//W3C//DTD SVG 1.1//EN"
 "http://www.w3.org/Graphics/SVG/1.1/DTD/svg11.dtd">
<!-- Generated by graphviz version 2.40.1 (20161225.0304)
 -->
<!-- Title: G Pages: 1 -->
<svg width="580pt" height="135pt"
 viewBox="0.00 0.00 580.00 135.06" xmlns="http://www.w3.org/2000/svg" xmlns:xlink="http://www.w3.org/1999/xlink">
<g id="graph0" class="graph" transform="scale(1 1) rotate(0) translate(4 131.0573)">
<title>G</title>
<!-- weak_ptr -->
<g id="node1" class="node">
<title>weak_ptr</title>
<polygon fill="#808020" stroke="#000000" points="0,-80.5573 0,-126.5573 223,-126.5573 223,-80.5573 0,-80.5573"/>
<text text-anchor="middle" x="111.5" y="-111.3573" font-family="monospace" font-size="14.00" fill="#000000">weak_ptr&lt;Foo&gt;</text>
<polyline fill="none" stroke="#000000" points="0,-103.5573 223,-103.5573 "/>
<text text-anchor="middle" x="33" y="-88.3573" font-family="monospace" font-size="14.00" fill="#000000">_M_ptr</text>
<polyline fill="none" stroke="#000000" points="66,-80.5573 66,-103.5573 "/>
<text text-anchor="middle" x="144.5" y="-88.3573" font-family="monospace" font-size="14.00" fill="#000000">_M_refcount._M_pi</text>
</g>
<!-- control -->
<g id="node3" class="node">
<title>control</title>
<polygon fill="#808020" stroke="#000000" points="259,-76.5573 259,-122.5573 572,-122.5573 572,-76.5573 259,-76.5573"/>
<text text-anchor="middle" x="415.5" y="-107.3573" font-family="monospace" font-size="14.00" fill="#000000">_Sp_counted_base&lt;Foo&gt;</text>
<polyline fill="none" stroke="#000000" points="259,-99.5573 572,-99.5573 "/>
<text text-anchor="middle" x="325" y="-84.3573" font-family="monospace" font-size="14.00" fill="#000000">_M_use_count=0</text>
<polyline fill="none" stroke="#000000" points="391,-76.5573 391,-99.5573 "/>
<text text-anchor="middle" x="461" y="-84.3573" font-family="monospace" font-size="14.00" fill="#000000">_M_weak_count=2</text>
<polyline fill="none" stroke="#000000" points="531,-76.5573 531,-99.5573 "/>
<text text-anchor="middle" x="551.5" y="-84.3573" font-family="monospace" font-size="14.00" fill="#000000">...</text>
</g>
<!-- weak_ptr&#45;&gt;control -->
<g id="edge3" class="edge">
<title>weak_ptr:control&#45;&gt;control:ctrl</title>
<path fill="none" stroke="#000000" d="M223,-91.5573C235.0738,-91.5573 240.2315,-89.3073 248.8473,-88.1823"/>
<polygon fill="#000000" stroke="#000000" points="249.234,-91.6652 259,-87.5573 248.8038,-84.6785 249.234,-91.6652"/>
</g>
<!-- object -->
<g id="node4" class="node">
<title>object</title>
<polygon fill="#404010" stroke="#000000" points="353.5,-13.5573 353.5,-49.5573 477.5,-49.5573 477.5,-13.5573 353.5,-13.5573"/>
<text text-anchor="middle" x="415.5" y="-27.8573" font-family="monospace" font-size="14.00" fill="#000000">&lt;free memory&gt;</text>
</g>
<!-- weak_ptr&#45;&gt;object -->
<g id="edge1" class="edge">
<title>weak_ptr:object&#45;&gt;object:foo</title>
<path fill="none" stroke="#000000" d="M32.5,-80.5573C32.5,-69.9594 212.4863,-71.8909 223,-70.5573 263.1973,-65.4586 307.5529,-56.6905 343.5457,-48.758"/>
<polygon fill="#000000" stroke="#000000" points="344.4666,-52.1387 353.4654,-46.5465 342.9434,-45.3064 344.4666,-52.1387"/>
</g>
<!-- weak_ptr2 -->
<g id="node2" class="node">
<title>weak_ptr2</title>
<polygon fill="#808020" stroke="#000000" points="0,-15.5573 0,-61.5573 223,-61.5573 223,-15.5573 0,-15.5573"/>
<text text-anchor="middle" x="111.5" y="-46.3573" font-family="monospace" font-size="14.00" fill="#000000">weak_ptr&lt;Foo&gt;</text>
<polyline fill="none" stroke="#000000" points="0,-38.5573 223,-38.5573 "/>
<text text-anchor="middle" x="33" y="-23.3573" font-family="monospace" font-size="14.00" fill="#000000">_M_ptr</text>
<polyline fill="none" stroke="#000000" points="66,-15.5573 66,-38.5573 "/>
<text text-anchor="middle" x="144.5" y="-23.3573" font-family="monospace" font-size="14.00" fill="#000000">_M_refcount._M_pi</text>
</g>
<!-- weak_ptr2&#45;&gt;control -->
<g id="edge4" class="edge">
<title>weak_ptr2:control&#45;&gt;control:ctrl</title>
<path fill="none" stroke="#000000" d="M223,-26.5573C250.2994,-26.5573 233.6502,-72.4302 249.2758,-84.6152"/>
<polygon fill="#000000" stroke="#000000" points="248.4149,-88.0113 259,-87.5573 250.4421,-81.3113 248.4149,-88.0113"/>
</g>
<!-- weak_ptr2&#45;&gt;object -->
<g id="edge2" class="edge">
<title>weak_ptr2:object&#45;&gt;object:foo</title>
<path fill="none" stroke="#000000" d="M32.5,-15.5573C32.5,15.1781 231.9378,-6.7762 342.9795,-21.3818"/>
<polygon fill="#000000" stroke="#000000" points="342.7385,-24.8804 353.112,-22.7264 343.6594,-17.9413 342.7385,-24.8804"/>
</g>
</g>
</svg>
